<?xml version="1.0" encoding="UTF-8" standalone="no"?>
<!DOCTYPE svg PUBLIC "-//W3C//DTD SVG 1.1//EN" "http://www.w3.org/Graphics/SVG/1.1/DTD/svg11.dtd">
<svg width="100%" height="100%" viewBox="0 0 1000 1000" version="1.1" xmlns="http://www.w3.org/2000/svg" xmlns:xlink="http://www.w3.org/1999/xlink" xml:space="preserve" xmlns:serif="http://www.serif.com/" style="fill-rule:evenodd;clip-rule:evenodd;stroke-linejoin:round;stroke-miterlimit:2;">
    <g transform="matrix(1,0,0,1,2213.89,-5047.07)">
        <g transform="matrix(3.03353,0,0,0.0672608,-7387.67,4946.63)">
            <path d="M1705.53,2236.62L1705.53,1493.25L1722.01,1493.25L1722.01,1530.42L2018.69,1530.42L2018.69,1493.25L2035.18,1493.25L2035.18,2236.62L2034.35,2236.62L2034.35,15617.4L2035.18,15617.4L2035.18,16360.8L2018.69,16360.8L2018.69,16323.6L1722.01,16323.6L1722.01,16360.8L1705.53,16360.8L1705.53,15617.4L1706.35,15617.4L1706.35,2236.62L1705.53,2236.62ZM2018.69,1604.76L1722.01,1604.76L1722.01,1641.92L1708.82,1641.92L1708.82,2236.62L1708,2236.62L1708,15617.4L1708.82,15617.4L1708.82,16212.1L1722.01,16212.1L1722.01,16249.2L2018.69,16249.2L2018.69,16212.1L2031.88,16212.1L2031.88,15617.4L2032.7,15617.4L2032.7,2236.62L2031.88,2236.62L2031.88,1641.92L2018.69,1641.92L2018.69,1604.76Z" style="fill:rgb(48,48,48);"/>
        </g>
    </g>
</svg>
